<svg width="45" height="45" xmlns="http://www.w3.org/2000/svg" xmlns:xlink="http://www.w3.org/1999/xlink" xml:space="preserve" overflow="hidden"><g transform="translate(-616 -90)"><path d="M649.568 119.739C648.559 118.729 646.855 118.758 645.593 119.741L643.642 117.791C648.761 112.309 648.468 103.715 642.986 98.5961 637.504 93.4767 628.911 93.7703 623.791 99.2519 618.672 104.733 618.965 113.327 624.447 118.447 629.663 123.318 637.76 123.321 642.979 118.453L644.929 120.404C644.511 120.929 644.255 121.564 644.191 122.232 644.103 123.018 644.373 123.803 644.926 124.369L651.515 130.969C652.016 131.46 652.693 131.731 653.395 131.719 655.204 131.66 656.695 130.28 656.892 128.48 656.98 127.693 656.71 126.908 656.157 126.342ZM624.757 117.469C619.815 112.526 619.815 104.513 624.757 99.5701 629.7 94.6276 637.713 94.6276 642.656 99.5702 647.598 104.513 647.598 112.526 642.656 117.469 637.71 122.404 629.703 122.404 624.757 117.469ZM655.179 129.998C654.265 130.91 652.92 131.048 652.179 130.306L645.59 123.703C645.234 123.331 645.063 122.82 645.124 122.309 645.189 121.7 645.466 121.134 645.906 120.709 646.375 120.225 647.014 119.943 647.688 119.925 648.141 119.914 648.579 120.085 648.904 120.401L655.493 127.002C655.849 127.373 656.02 127.885 655.959 128.396 655.895 129.005 655.619 129.572 655.178 129.997Z" fill="#A6A6A6"/><path d="M627.378 108.05 640.034 108.05 640.034 108.987 627.378 108.987Z" fill="#A6A6A6"/></g></svg>