<svg width="46" height="45" xmlns="http://www.w3.org/2000/svg" xmlns:xlink="http://www.w3.org/1999/xlink" xml:space="preserve" overflow="hidden"><g transform="translate(-413 -89)"><path d="M22.5 14.0625C17.8401 14.0625 14.0625 17.8401 14.0625 22.5 14.0625 27.1599 17.8401 30.9375 22.5 30.9375 27.1599 30.9375 30.9375 27.1599 30.9375 22.5 30.9321 17.8424 27.1576 14.0679 22.5 14.0625ZM22.5 30C18.3578 30 15 26.6422 15 22.5 15 18.3578 18.3578 15 22.5 15 26.6422 15 30 18.3578 30 22.5 29.9951 26.6401 26.6401 29.9951 22.5 30Z" fill="#A6A6A6" transform="matrix(1.02222 0 0 1 413 89)"/><path d="M22.0312 32.8125 22.9688 32.8125 22.9688 38.9062 22.0312 38.9062Z" fill="#A6A6A6" transform="matrix(1.02222 0 0 1 413 89)"/><path d="M22.0312 6.09375 22.9688 6.09375 22.9688 12.1875 22.0312 12.1875Z" fill="#A6A6A6" transform="matrix(1.02222 0 0 1 413 89)"/><path d="M6.09375 22.0312 12.1875 22.0312 12.1875 22.9688 6.09375 22.9688Z" fill="#A6A6A6" transform="matrix(1.02222 0 0 1 413 89)"/><path d="M32.8125 22.0312 38.9062 22.0312 38.9062 22.9688 32.8125 22.9688Z" fill="#A6A6A6" transform="matrix(1.02222 0 0 1 413 89)"/><path d="M10.1162 31.822 16.2766 31.822 16.2766 32.7697 10.1162 32.7697Z" fill="#A6A6A6" transform="matrix(0.715007 -0.699463 0.715007 0.699463 393.817 107.587)"/><path d="M29.2152 12.7221 35.3755 12.7221 35.3755 13.6698 29.2152 13.6698Z" fill="#A6A6A6" transform="matrix(0.715007 -0.699463 0.715007 0.699463 413.129 115.413)"/><path d="M12.7225 10.1158 13.6703 10.1158 13.6703 16.2761 12.7225 16.2761Z" fill="#A6A6A6" transform="matrix(0.715007 -0.699463 0.715007 0.699463 407.473 102.054)"/><path d="M31.8215 29.2157 32.7692 29.2157 32.7692 35.376 31.8215 35.376Z" fill="#A6A6A6" transform="matrix(0.715007 -0.699463 0.715007 0.699463 399.473 120.946)"/></g></svg>