<svg width="45" height="45" xmlns="http://www.w3.org/2000/svg" xmlns:xlink="http://www.w3.org/1999/xlink" xml:space="preserve" overflow="hidden"><g transform="translate(-908 -91)"><path d="M930.49 95.6875C920.658 95.6875 912.688 103.658 912.688 113.49 912.688 123.322 920.658 131.293 930.49 131.293 940.322 131.293 948.293 123.322 948.293 113.49 948.297 103.662 940.334 95.6919 930.506 95.6875 930.501 95.6875 930.495 95.6875 930.49 95.6875ZM930.49 130.355C921.176 130.355 913.625 122.805 913.625 113.49 913.625 104.176 921.176 96.625 930.49 96.625 939.805 96.625 947.355 104.176 947.355 113.49 947.345 122.8 939.8 130.345 930.49 130.355Z" fill="#A6A6A6"/><path d="M931.13 103.693C928.035 103.341 925.24 105.565 924.888 108.66 924.864 108.871 924.852 109.084 924.852 109.297L925.789 109.297C925.79 106.7 927.896 104.596 930.492 104.597 933.089 104.598 935.193 106.704 935.192 109.301 935.192 110.918 934.36 112.421 932.99 113.281 931.162 114.395 930.039 116.374 930.021 118.514L930.959 118.514C930.978 116.696 931.936 115.018 933.49 114.075 936.128 112.42 936.925 108.939 935.269 106.301 934.358 104.848 932.836 103.89 931.132 103.695Z" fill="#A6A6A6"/><path d="M931.438 122.406C931.438 122.924 931.018 123.344 930.5 123.344 929.982 123.344 929.562 122.924 929.562 122.406 929.562 121.888 929.982 121.469 930.5 121.469 931.018 121.469 931.438 121.888 931.438 122.406Z" fill="#A6A6A6"/></g></svg>