<svg width="55" height="55" xmlns="http://www.w3.org/2000/svg" xmlns:xlink="http://www.w3.org/1999/xlink" xml:space="preserve" overflow="hidden"><g transform="translate(-1340 -360)"><path d="M1367.5 369.167C1371.93 369.167 1375.52 372.758 1375.52 377.188 1375.52 381.617 1371.93 385.208 1367.5 385.208 1363.07 385.208 1359.48 381.617 1359.48 377.188 1359.48 372.76 1363.07 369.171 1367.5 369.167M1367.5 368.021C1362.44 368.021 1358.33 372.125 1358.33 377.188 1358.33 382.25 1362.44 386.354 1367.5 386.354 1372.56 386.354 1376.67 382.25 1376.67 377.188 1376.67 372.125 1372.56 368.021 1367.5 368.021Z" fill="#A6A6A6"/><path d="M1385.83 406.979 1384.69 406.979 1384.69 398.099C1384.66 396.882 1384.09 395.742 1383.13 394.994 1380.61 393.066 1377.74 391.667 1374.67 390.88 1372.35 390.165 1369.93 389.799 1367.5 389.792 1365.07 389.834 1362.66 390.2 1360.32 390.88 1357.29 391.769 1354.42 393.164 1351.85 395.005 1350.9 395.754 1350.34 396.889 1350.31 398.099L1350.31 406.979 1349.17 406.979 1349.17 398.099C1349.2 396.534 1349.93 395.065 1351.16 394.099 1353.85 392.17 1356.84 390.709 1360.02 389.779 1362.45 389.07 1364.97 388.689 1367.5 388.646 1370.04 388.652 1372.56 389.034 1374.99 389.78 1378.2 390.608 1381.22 392.078 1383.85 394.103 1385.08 395.069 1385.81 396.536 1385.83 398.099Z" fill="#A6A6A6"/></g></svg>