<svg width="46" height="46" xmlns="http://www.w3.org/2000/svg" xmlns:xlink="http://www.w3.org/1999/xlink" xml:space="preserve" overflow="hidden"><g transform="translate(-666 -87)"><path d="M684.1 119.816C687.618 119.822 691.007 118.488 693.578 116.085L695.572 118.079C695.145 118.616 694.883 119.265 694.817 119.948 694.728 120.752 695.004 121.554 695.569 122.133L702.305 128.88C702.816 129.382 703.508 129.658 704.226 129.646 706.076 129.587 707.6 128.175 707.801 126.335 707.89 125.531 707.615 124.729 707.049 124.15L700.314 117.397C699.283 116.364 697.541 116.394 696.25 117.397L694.256 115.403C699.499 109.792 699.201 100.994 693.591 95.7504 687.98 90.5072 679.181 90.805 673.938 96.4156 668.695 102.026 668.993 110.825 674.603 116.068 677.179 118.475 680.573 119.814 684.098 119.814ZM699.635 118.074 706.371 124.821C706.735 125.201 706.909 125.724 706.847 126.247 706.782 126.869 706.499 127.449 706.049 127.884 705.114 128.815 703.74 128.956 702.982 128.198L696.247 121.452C695.883 121.072 695.709 120.549 695.772 120.027 695.931 118.683 697.039 117.651 698.392 117.587 698.855 117.576 699.303 117.751 699.635 118.074ZM674.952 96.7788C680.004 91.7265 688.196 91.7265 693.248 96.7789 698.301 101.831 698.301 110.023 693.248 115.075 688.196 120.128 680.004 120.128 674.952 115.075 669.899 110.056 669.872 101.892 674.891 96.8394 674.911 96.8191 674.932 96.799 674.952 96.7788Z" fill="#A6A6A6"/><path d="M683.62 112.396 684.579 112.396 684.579 106.406 690.568 106.406 690.568 105.448 684.579 105.448 684.579 99.4583 683.62 99.4583 683.62 105.448 677.631 105.448 677.631 106.406 683.62 106.406 683.62 112.396Z" fill="#A6A6A6"/></g></svg>