<svg width="46" height="45" xmlns="http://www.w3.org/2000/svg" xmlns:xlink="http://www.w3.org/1999/xlink" xml:space="preserve" overflow="hidden"><g transform="translate(-360 -89)"><path d="M39.375 12.5632 38.9617 12.3664 24.7554 5.60156 6.16341 9.65803 5.625 9.7755 5.625 32.0824 18.8177 39.1863 19.2221 39.404 19.7552 39.2752 39.375 34.5394 39.375 12.5632ZM24.6419 6.58594 37.4666 12.693C37.4733 12.6962 37.4729 12.7002 37.4656 12.7018L25.1672 15.4582 25.1672 15.087 24.2297 15.087 24.2297 15.6682 19.3547 16.7609 7.44263 10.3469C7.43648 10.3436 7.437 10.3397 7.44384 10.3382ZM6.5625 31.5225 6.5625 10.9456C6.5625 10.9431 6.56461 10.941 6.56719 10.941 6.56798 10.941 6.56873 10.9411 6.56939 10.9415L18.8178 17.5368 18.8178 38.1135C18.8178 38.1161 18.8157 38.1182 18.8131 38.1182 18.8123 38.1182 18.8116 38.118 18.8109 38.1177ZM38.4375 33.8016 19.7552 38.3109 19.7552 29.3016 20.8466 29.0634 20.647 28.1474 19.7552 28.342 19.7552 17.6321 24.2299 16.629 24.2299 16.9618 25.1674 16.9618 25.1674 16.419 38.4375 13.4447Z" fill="#A6A6A6" transform="matrix(1.02222 0 0 1 360 89)"/><path d="M24.2299 21.6495 25.1674 21.6495 25.1674 23.5245 24.2299 23.5245Z" fill="#A6A6A6" transform="matrix(1.02222 0 0 1 360 89)"/><path d="M24.2299 11.8057 25.1674 11.8057 25.1674 13.6807 24.2299 13.6807Z" fill="#A6A6A6" transform="matrix(1.02222 0 0 1 360 89)"/><path d="M24.2299 18.3682 25.1674 18.3682 25.1674 20.2432 24.2299 20.2432Z" fill="#A6A6A6" transform="matrix(1.02222 0 0 1 360 89)"/><path d="M24.2299 8.52445 25.1674 8.52445 25.1674 10.3995 24.2299 10.3995Z" fill="#A6A6A6" transform="matrix(1.02222 0 0 1 360 89)"/><path d="M24.2299 24.9307 25.1674 24.9307 25.1674 26.8057 24.2299 26.8057Z" fill="#A6A6A6" transform="matrix(1.02222 0 0 1 360 89)"/><path d="M25.7673 27.5615 26.7084 27.5615 26.7084 29.4436 25.7673 29.4436Z" fill="#A6A6A6" transform="matrix(0.419669 -0.907677 0.927848 0.410546 349.262 129.508)"/><path d="M34.77 31.6342 35.7111 31.6342 35.7111 33.5164 34.77 33.5164Z" fill="#A6A6A6" transform="matrix(0.419772 -0.90763 0.927799 0.410646 350.871 140.06)"/><path d="M9.28468 30.4648 11.1616 30.4648 11.1616 31.4032 9.28468 31.4032Z" fill="#A6A6A6" transform="matrix(0.997814 -0.212688 0.217415 0.976122 353.514 91.8828)"/><path d="M22.1205 27.6642 23.9974 27.6642 23.9974 28.6026 22.1205 28.6026Z" fill="#A6A6A6" transform="matrix(0.997814 -0.212688 0.217415 0.976122 354.423 94.5487)"/><path d="M31.769 30.2766 32.7101 30.2766 32.7101 32.1588 31.769 32.1588Z" fill="#A6A6A6" transform="matrix(0.419772 -0.90763 0.927799 0.410646 350.334 136.541)"/><path d="M28.7681 28.9193 29.7092 28.9193 29.7092 30.801 28.7681 30.801Z" fill="#A6A6A6" transform="matrix(0.419669 -0.907677 0.927848 0.410546 349.799 133.027)"/><path d="M12.4935 29.7647 14.3704 29.7647 14.3704 30.7031 12.4935 30.7031Z" fill="#A6A6A6" transform="matrix(0.997814 -0.212688 0.217415 0.976122 353.741 92.5493)"/><path d="M15.7024 29.0645 17.5793 29.0645 17.5793 30.003 15.7024 30.003Z" fill="#A6A6A6" transform="matrix(0.997814 -0.212688 0.217415 0.976122 353.969 93.2157)"/></g></svg>