<svg width="45" height="45" xmlns="http://www.w3.org/2000/svg" xmlns:xlink="http://www.w3.org/1999/xlink" xml:space="preserve" overflow="hidden"><g transform="translate(-458 -93)"><path d="M495.374 100.5 495.406 100.5C495.422 100.5 495.438 100.502 495.453 100.506 495.453 100.523 495.45 100.54 495.446 100.557L485.516 130.391C485.5 130.438 485.473 130.453 485.469 130.453 485.465 130.453 485.436 130.438 485.413 130.369L480.304 116.213 480.154 115.799 479.74 115.65 465.562 110.531C465.515 110.516 465.5 110.489 465.5 110.484 465.5 110.48 465.515 110.452 465.562 110.438L495.372 100.5 495.372 100.5M495.404 99.5625C495.293 99.5581 495.182 99.574 495.076 99.6094L465.266 109.547C464.748 109.698 464.45 110.24 464.601 110.757 464.694 111.078 464.945 111.329 465.266 111.422L479.422 116.531 484.531 130.688C484.682 131.205 485.224 131.503 485.742 131.352 486.062 131.259 486.313 131.008 486.406 130.688L496.344 100.828C496.444 100.526 496.392 100.194 496.203 99.9375 496.01 99.6958 495.716 99.5573 495.406 99.5625Z" fill="#A6A6A6"/></g></svg>