<svg width="45" height="45" xmlns="http://www.w3.org/2000/svg" xmlns:xlink="http://www.w3.org/1999/xlink" xml:space="preserve" overflow="hidden"><g transform="translate(-307 -88)"><path d="M329.969 105.812 329.969 96.6428C329.969 96.6402 329.971 96.6382 329.973 96.6382 329.975 96.6382 329.976 96.6387 329.977 96.6395L333.146 99.8087 333.809 99.1459 329.5 94.8372 325.191 99.1459 325.854 99.8087 329.023 96.6395C329.025 96.6377 329.028 96.6377 329.03 96.6396 329.031 96.6405 329.031 96.6416 329.031 96.6428L329.031 105.812Z" fill="#A6A6A6"/><path d="M329.5 126.163 333.809 121.854 333.146 121.191 329.977 124.36C329.975 124.362 329.972 124.362 329.97 124.36 329.969 124.36 329.969 124.358 329.969 124.357L329.969 115.188 329.031 115.188 329.031 124.357C329.031 124.36 329.029 124.362 329.027 124.362 329.025 124.362 329.024 124.361 329.023 124.36L325.854 121.191 325.191 121.854Z" fill="#A6A6A6"/><path d="M318.146 106.191 313.837 110.5 318.146 114.809 318.809 114.146 315.64 110.977C315.638 110.975 315.638 110.972 315.64 110.97 315.64 110.969 315.642 110.969 315.643 110.969L324.812 110.969 324.812 110.031 315.643 110.031C315.64 110.031 315.638 110.029 315.638 110.027 315.638 110.025 315.639 110.024 315.64 110.023L318.809 106.854Z" fill="#A6A6A6"/><path d="M334.188 110.969 343.357 110.969C343.36 110.969 343.362 110.971 343.362 110.973 343.362 110.975 343.361 110.976 343.36 110.977L340.191 114.146 340.854 114.809 345.163 110.5 340.854 106.191 340.191 106.854 343.36 110.023C343.362 110.025 343.362 110.028 343.36 110.03 343.36 110.031 343.358 110.031 343.357 110.031L334.188 110.031Z" fill="#A6A6A6"/></g></svg>